<svg xmlns="http://www.w3.org/2000/svg" xmlns:xlink="http://www.w3.org/1999/xlink" zoomAndPan="magnify" preserveAspectRatio="xMidYMid meet" version="1.0" viewBox="36.23 287.79 723.35 230.94"><defs><g/><clipPath id="59d4466321"><path d="M 130 450 L 236 450 L 236 508 L 130 508 Z M 130 450 " clip-rule="nonzero"/></clipPath><clipPath id="a4259e2b5a"><path d="M 130.152344 461.421875 L 229.253906 450.035156 L 235.757812 506.664062 L 136.660156 518.046875 Z M 130.152344 461.421875 " clip-rule="nonzero"/></clipPath><clipPath id="902d1ca46a"><path d="M 112.941406 311.582031 L 320.078125 287.785156 L 343.875 494.925781 L 136.738281 518.722656 Z M 112.941406 311.582031 " clip-rule="nonzero"/></clipPath><clipPath id="a9f564df65"><path d="M 112.941406 311.582031 L 320.078125 287.785156 L 343.875 494.925781 L 136.738281 518.722656 Z M 112.941406 311.582031 " clip-rule="nonzero"/></clipPath><clipPath id="b3310af0f3"><path d="M 136 455 L 234 455 L 234 508 L 136 508 Z M 136 455 " clip-rule="nonzero"/></clipPath><clipPath id="469a0cfbc4"><path d="M 136.570312 458.921875 L 231.757812 455.476562 L 233.628906 507.191406 L 138.441406 510.636719 Z M 136.570312 458.921875 " clip-rule="nonzero"/></clipPath><clipPath id="31132c29a0"><path d="M 131.675781 323.742188 L 318.304688 316.988281 L 325.058594 503.617188 L 138.429688 510.371094 Z M 131.675781 323.742188 " clip-rule="nonzero"/></clipPath><clipPath id="a242293750"><path d="M 131.675781 323.742188 L 318.304688 316.988281 L 325.058594 503.617188 L 138.429688 510.371094 Z M 131.675781 323.742188 " clip-rule="nonzero"/></clipPath><clipPath id="b4606004b0"><path d="M 36.226562 291.246094 L 236.476562 291.246094 L 236.476562 491.496094 L 36.226562 491.496094 Z M 36.226562 291.246094 " clip-rule="nonzero"/></clipPath><clipPath id="09630a83bd"><path d="M 74 324 L 101 324 L 101 349 L 74 349 Z M 74 324 " clip-rule="nonzero"/></clipPath><clipPath id="7a1ec6197b"><path d="M 221.433594 318.769531 L 209.339844 476.558594 L 51.554688 464.464844 L 63.648438 306.675781 Z M 221.433594 318.769531 " clip-rule="nonzero"/></clipPath><clipPath id="a1e9ec34c9"><path d="M 221.433594 318.769531 L 209.339844 476.558594 L 51.554688 464.464844 L 63.648438 306.675781 Z M 221.433594 318.769531 " clip-rule="nonzero"/></clipPath><clipPath id="e148a39eef"><path d="M 147 313 L 177 313 L 177 331 L 147 331 Z M 147 313 " clip-rule="nonzero"/></clipPath><clipPath id="1b391fda88"><path d="M 221.433594 318.769531 L 209.339844 476.558594 L 51.554688 464.464844 L 63.648438 306.675781 Z M 221.433594 318.769531 " clip-rule="nonzero"/></clipPath><clipPath id="57b39e5080"><path d="M 221.433594 318.769531 L 209.339844 476.558594 L 51.554688 464.464844 L 63.648438 306.675781 Z M 221.433594 318.769531 " clip-rule="nonzero"/></clipPath><clipPath id="5588c96a65"><path d="M 107 312 L 138 312 L 138 326 L 107 326 Z M 107 312 " clip-rule="nonzero"/></clipPath><clipPath id="4b5be4d3ac"><path d="M 221.433594 318.769531 L 209.339844 476.558594 L 51.554688 464.464844 L 63.648438 306.675781 Z M 221.433594 318.769531 " clip-rule="nonzero"/></clipPath><clipPath id="b260953646"><path d="M 221.433594 318.769531 L 209.339844 476.558594 L 51.554688 464.464844 L 63.648438 306.675781 Z M 221.433594 318.769531 " clip-rule="nonzero"/></clipPath><clipPath id="fc92c3a696"><path d="M 164 440 L 191 440 L 191 463 L 164 463 Z M 164 440 " clip-rule="nonzero"/></clipPath><clipPath id="cfebd74a48"><path d="M 221.433594 318.769531 L 209.339844 476.558594 L 51.554688 464.464844 L 63.648438 306.675781 Z M 221.433594 318.769531 " clip-rule="nonzero"/></clipPath><clipPath id="ac17f0dec4"><path d="M 221.433594 318.769531 L 209.339844 476.558594 L 51.554688 464.464844 L 63.648438 306.675781 Z M 221.433594 318.769531 " clip-rule="nonzero"/></clipPath><clipPath id="09e2138082"><path d="M 58 355 L 75 355 L 75 386 L 58 386 Z M 58 355 " clip-rule="nonzero"/></clipPath><clipPath id="17058d4276"><path d="M 221.433594 318.769531 L 209.339844 476.558594 L 51.554688 464.464844 L 63.648438 306.675781 Z M 221.433594 318.769531 " clip-rule="nonzero"/></clipPath><clipPath id="4b8919736a"><path d="M 221.433594 318.769531 L 209.339844 476.558594 L 51.554688 464.464844 L 63.648438 306.675781 Z M 221.433594 318.769531 " clip-rule="nonzero"/></clipPath><clipPath id="45f5e87157"><path d="M 182 332 L 206 332 L 206 359 L 182 359 Z M 182 332 " clip-rule="nonzero"/></clipPath><clipPath id="af58a16029"><path d="M 221.433594 318.769531 L 209.339844 476.558594 L 51.554688 464.464844 L 63.648438 306.675781 Z M 221.433594 318.769531 " clip-rule="nonzero"/></clipPath><clipPath id="7d863d291e"><path d="M 221.433594 318.769531 L 209.339844 476.558594 L 51.554688 464.464844 L 63.648438 306.675781 Z M 221.433594 318.769531 " clip-rule="nonzero"/></clipPath><clipPath id="41106f804e"><path d="M 106 455 L 155 455 L 155 470 L 106 470 Z M 106 455 " clip-rule="nonzero"/></clipPath><clipPath id="36a1481f30"><path d="M 221.433594 318.769531 L 209.339844 476.558594 L 51.554688 464.464844 L 63.648438 306.675781 Z M 221.433594 318.769531 " clip-rule="nonzero"/></clipPath><clipPath id="87a6c05447"><path d="M 221.433594 318.769531 L 209.339844 476.558594 L 51.554688 464.464844 L 63.648438 306.675781 Z M 221.433594 318.769531 " clip-rule="nonzero"/></clipPath><clipPath id="9f2123d8c9"><path d="M 73 431 L 99 431 L 99 456 L 73 456 Z M 73 431 " clip-rule="nonzero"/></clipPath><clipPath id="e421b02a22"><path d="M 221.433594 318.769531 L 209.339844 476.558594 L 51.554688 464.464844 L 63.648438 306.675781 Z M 221.433594 318.769531 " clip-rule="nonzero"/></clipPath><clipPath id="de72aa963e"><path d="M 221.433594 318.769531 L 209.339844 476.558594 L 51.554688 464.464844 L 63.648438 306.675781 Z M 221.433594 318.769531 " clip-rule="nonzero"/></clipPath><clipPath id="8da959ff15"><path d="M 202 367 L 216 367 L 216 398 L 202 398 Z M 202 367 " clip-rule="nonzero"/></clipPath><clipPath id="de759419b5"><path d="M 221.433594 318.769531 L 209.339844 476.558594 L 51.554688 464.464844 L 63.648438 306.675781 Z M 221.433594 318.769531 " clip-rule="nonzero"/></clipPath><clipPath id="497219949b"><path d="M 221.433594 318.769531 L 209.339844 476.558594 L 51.554688 464.464844 L 63.648438 306.675781 Z M 221.433594 318.769531 " clip-rule="nonzero"/></clipPath><clipPath id="2cba285030"><path d="M 58 395 L 74 395 L 74 425 L 58 425 Z M 58 395 " clip-rule="nonzero"/></clipPath><clipPath id="7a2672d24f"><path d="M 221.433594 318.769531 L 209.339844 476.558594 L 51.554688 464.464844 L 63.648438 306.675781 Z M 221.433594 318.769531 " clip-rule="nonzero"/></clipPath><clipPath id="c64cdccaa8"><path d="M 221.433594 318.769531 L 209.339844 476.558594 L 51.554688 464.464844 L 63.648438 306.675781 Z M 221.433594 318.769531 " clip-rule="nonzero"/></clipPath><clipPath id="b12ce4e761"><path d="M 193 407 L 213 407 L 213 436 L 193 436 Z M 193 407 " clip-rule="nonzero"/></clipPath><clipPath id="441bb047af"><path d="M 221.433594 318.769531 L 209.339844 476.558594 L 51.554688 464.464844 L 63.648438 306.675781 Z M 221.433594 318.769531 " clip-rule="nonzero"/></clipPath><clipPath id="ca46a491cf"><path d="M 221.433594 318.769531 L 209.339844 476.558594 L 51.554688 464.464844 L 63.648438 306.675781 Z M 221.433594 318.769531 " clip-rule="nonzero"/></clipPath><clipPath id="ce5052fd7e"><path d="M 194 476 L 222 476 L 222 491 L 194 491 Z M 194 476 " clip-rule="nonzero"/></clipPath><clipPath id="3aa0e2e5a0"><path d="M 201.96875 434 L 230.214844 493.652344 L 188.863281 513.230469 L 160.621094 453.578125 Z M 201.96875 434 " clip-rule="nonzero"/></clipPath><clipPath id="56022ac909"><path d="M 259.292969 321.761719 L 321.558594 453.265625 L 190.054688 515.53125 L 127.789062 384.027344 Z M 259.292969 321.761719 " clip-rule="nonzero"/></clipPath><clipPath id="c8d7b041d4"><path d="M 165 454 L 188 454 L 188 477 L 165 477 Z M 165 454 " clip-rule="nonzero"/></clipPath><clipPath id="257aa7e491"><path d="M 201.96875 434 L 230.214844 493.652344 L 188.863281 513.230469 L 160.621094 453.578125 Z M 201.96875 434 " clip-rule="nonzero"/></clipPath><clipPath id="5a0743cc7d"><path d="M 259.292969 321.761719 L 321.558594 453.265625 L 190.054688 515.53125 L 127.789062 384.027344 Z M 259.292969 321.761719 " clip-rule="nonzero"/></clipPath><clipPath id="e18405fa61"><path d="M 68.332031 324.480469 L 202.582031 324.480469 L 202.582031 458.730469 L 68.332031 458.730469 Z M 68.332031 324.480469 " clip-rule="nonzero"/></clipPath><clipPath id="6f2d5be824"><path d="M 73.5 329.605469 L 197.25 329.605469 L 197.25 453.355469 L 73.5 453.355469 Z M 73.5 329.605469 " clip-rule="nonzero"/></clipPath><clipPath id="365f058e31"><path d="M 78.988281 333.445312 L 195.238281 333.445312 L 195.238281 449.695312 L 78.988281 449.695312 Z M 78.988281 333.445312 " clip-rule="nonzero"/></clipPath></defs><g clip-path="url(#59d4466321)"><g clip-path="url(#a4259e2b5a)"><g clip-path="url(#902d1ca46a)"><g clip-path="url(#a9f564df65)"><path fill="#000000" d="M 216.507812 299.683594 C 159.285156 306.257812 118.265625 357.929688 124.839844 415.152344 C 131.414062 472.375 183.085938 513.398438 240.304688 506.824219 C 297.527344 500.25 338.550781 448.578125 331.976562 391.355469 C 325.402344 334.132812 273.730469 293.109375 216.507812 299.683594 Z M 237.925781 486.109375 C 192.148438 491.367188 150.8125 458.550781 145.550781 412.773438 C 140.292969 366.996094 173.109375 325.660156 218.886719 320.398438 C 264.664062 315.140625 306.003906 347.957031 311.261719 393.734375 C 316.519531 439.511719 283.703125 480.851562 237.925781 486.109375 Z M 237.925781 486.109375 " fill-opacity="1" fill-rule="nonzero"/></g></g></g></g><g clip-path="url(#b3310af0f3)"><g clip-path="url(#469a0cfbc4)"><g clip-path="url(#31132c29a0)"><g clip-path="url(#a242293750)"><path fill="#000000" d="M 224.992188 320.367188 C 173.433594 322.230469 133.1875 365.5 135.054688 417.054688 C 136.917969 468.613281 180.1875 508.859375 231.746094 506.992188 C 283.300781 505.128906 323.546875 461.859375 321.683594 410.304688 C 319.816406 358.746094 276.546875 318.5 224.992188 320.367188 Z M 231.070312 488.332031 C 189.824219 489.824219 155.210938 457.625 153.71875 416.382812 C 152.222656 375.136719 184.421875 340.519531 225.667969 339.027344 C 266.910156 337.535156 301.527344 369.734375 303.019531 410.980469 C 304.511719 452.222656 272.3125 486.839844 231.070312 488.332031 Z M 231.070312 488.332031 " fill-opacity="1" fill-rule="nonzero"/></g></g></g></g><g fill="#000000" fill-opacity="1"><g transform="translate(260.975577, 437.823296)"><g><path d="M 12.640625 0 C 11.773438 0 11.039062 -0.300781 10.4375 -0.90625 C 9.84375 -1.507812 9.546875 -2.28125 9.546875 -3.21875 L 9.546875 -87.046875 C 9.546875 -87.992188 9.84375 -88.769531 10.4375 -89.375 C 11.039062 -89.976562 11.773438 -90.28125 12.640625 -90.28125 L 46.9375 -90.28125 C 57.6875 -90.28125 66.15625 -87.804688 72.34375 -82.859375 C 78.539062 -77.921875 81.640625 -70.804688 81.640625 -61.515625 C 81.640625 -55.242188 80.132812 -50 77.125 -45.78125 C 74.113281 -41.570312 70.070312 -38.4375 65 -36.375 L 83.3125 -4.125 C 83.570312 -3.613281 83.703125 -3.140625 83.703125 -2.703125 C 83.703125 -2.015625 83.421875 -1.390625 82.859375 -0.828125 C 82.304688 -0.273438 81.6875 0 81 0 L 66.546875 0 C 64.992188 0 63.832031 -0.40625 63.0625 -1.21875 C 62.289062 -2.039062 61.734375 -2.796875 61.390625 -3.484375 L 45.65625 -33.015625 L 30.046875 -33.015625 L 30.046875 -3.21875 C 30.046875 -2.28125 29.742188 -1.507812 29.140625 -0.90625 C 28.546875 -0.300781 27.773438 0 26.828125 0 Z M 30.046875 -49.390625 L 46.6875 -49.390625 C 51.332031 -49.390625 54.789062 -50.460938 57.0625 -52.609375 C 59.34375 -54.765625 60.484375 -57.773438 60.484375 -61.640625 C 60.484375 -65.515625 59.363281 -68.566406 57.125 -70.796875 C 54.894531 -73.035156 51.414062 -74.15625 46.6875 -74.15625 L 30.046875 -74.15625 Z M 30.046875 -49.390625 "/></g></g></g><g fill="#000000" fill-opacity="1"><g transform="translate(366.987232, 437.823296)"><g><path d="M 45.390625 1.296875 C 37.566406 1.296875 30.816406 0.00390625 25.140625 -2.578125 C 19.472656 -5.160156 15.046875 -9.050781 11.859375 -14.25 C 8.679688 -19.445312 6.960938 -26.003906 6.703125 -33.921875 C 6.617188 -37.617188 6.578125 -41.289062 6.578125 -44.9375 C 6.578125 -48.59375 6.617188 -52.3125 6.703125 -56.09375 C 6.960938 -63.832031 8.703125 -70.347656 11.921875 -75.640625 C 15.148438 -80.929688 19.625 -84.90625 25.34375 -87.5625 C 31.0625 -90.226562 37.742188 -91.5625 45.390625 -91.5625 C 52.960938 -91.5625 59.609375 -90.226562 65.328125 -87.5625 C 71.046875 -84.90625 75.535156 -80.929688 78.796875 -75.640625 C 82.066406 -70.347656 83.832031 -63.832031 84.09375 -56.09375 C 84.257812 -52.3125 84.34375 -48.59375 84.34375 -44.9375 C 84.34375 -41.289062 84.257812 -37.617188 84.09375 -33.921875 C 83.832031 -26.003906 82.085938 -19.445312 78.859375 -14.25 C 75.640625 -9.050781 71.191406 -5.160156 65.515625 -2.578125 C 59.835938 0.00390625 53.128906 1.296875 45.390625 1.296875 Z M 45.390625 -15.46875 C 50.378906 -15.46875 54.484375 -16.972656 57.703125 -19.984375 C 60.929688 -22.992188 62.632812 -27.851562 62.8125 -34.5625 C 62.976562 -38.34375 63.0625 -41.890625 63.0625 -45.203125 C 63.0625 -48.515625 62.976562 -52.019531 62.8125 -55.71875 C 62.71875 -60.1875 61.894531 -63.835938 60.34375 -66.671875 C 58.800781 -69.515625 56.757812 -71.578125 54.21875 -72.859375 C 51.6875 -74.148438 48.742188 -74.796875 45.390625 -74.796875 C 42.128906 -74.796875 39.207031 -74.148438 36.625 -72.859375 C 34.050781 -71.578125 31.988281 -69.515625 30.4375 -66.671875 C 28.882812 -63.835938 28.023438 -60.1875 27.859375 -55.71875 C 27.773438 -52.019531 27.734375 -48.515625 27.734375 -45.203125 C 27.734375 -41.890625 27.773438 -38.34375 27.859375 -34.5625 C 28.117188 -27.851562 29.835938 -22.992188 33.015625 -19.984375 C 36.191406 -16.972656 40.316406 -15.46875 45.390625 -15.46875 Z M 45.390625 -15.46875 "/></g></g></g><g fill="#000000" fill-opacity="1"><g transform="translate(475.707118, 437.823296)"><g><path d="M 46.421875 1.296875 C 38.859375 1.296875 32.238281 0.03125 26.5625 -2.5 C 20.894531 -5.039062 16.507812 -8.957031 13.40625 -14.25 C 10.3125 -19.539062 8.765625 -26.269531 8.765625 -34.4375 L 8.765625 -87.046875 C 8.765625 -87.992188 9.066406 -88.769531 9.671875 -89.375 C 10.273438 -89.976562 11.003906 -90.28125 11.859375 -90.28125 L 26.046875 -90.28125 C 26.992188 -90.28125 27.769531 -89.976562 28.375 -89.375 C 28.976562 -88.769531 29.28125 -87.992188 29.28125 -87.046875 L 29.28125 -34.5625 C 29.28125 -28.289062 30.78125 -23.601562 33.78125 -20.5 C 36.789062 -17.40625 41.003906 -15.859375 46.421875 -15.859375 C 51.753906 -15.859375 55.925781 -17.40625 58.9375 -20.5 C 61.945312 -23.601562 63.453125 -28.289062 63.453125 -34.5625 L 63.453125 -87.046875 C 63.453125 -87.992188 63.773438 -88.769531 64.421875 -89.375 C 65.066406 -89.976562 65.816406 -90.28125 66.671875 -90.28125 L 80.859375 -90.28125 C 81.722656 -90.28125 82.453125 -89.976562 83.046875 -89.375 C 83.648438 -88.769531 83.953125 -87.992188 83.953125 -87.046875 L 83.953125 -34.4375 C 83.953125 -26.269531 82.425781 -19.539062 79.375 -14.25 C 76.320312 -8.957031 71.976562 -5.039062 66.34375 -2.5 C 60.71875 0.03125 54.078125 1.296875 46.421875 1.296875 Z M 46.421875 1.296875 "/></g></g></g><g fill="#000000" fill-opacity="1"><g transform="translate(586.49044, 437.823296)"><g><path d="M 32.625 0 C 31.675781 0 30.898438 -0.300781 30.296875 -0.90625 C 29.703125 -1.507812 29.40625 -2.28125 29.40625 -3.21875 L 29.40625 -72.21875 L 5.9375 -72.21875 C 5.070312 -72.21875 4.335938 -72.519531 3.734375 -73.125 C 3.140625 -73.726562 2.84375 -74.503906 2.84375 -75.453125 L 2.84375 -87.046875 C 2.84375 -87.992188 3.140625 -88.769531 3.734375 -89.375 C 4.335938 -89.976562 5.070312 -90.28125 5.9375 -90.28125 L 73.515625 -90.28125 C 74.460938 -90.28125 75.234375 -89.976562 75.828125 -89.375 C 76.429688 -88.769531 76.734375 -87.992188 76.734375 -87.046875 L 76.734375 -75.453125 C 76.734375 -74.503906 76.429688 -73.726562 75.828125 -73.125 C 75.234375 -72.519531 74.460938 -72.21875 73.515625 -72.21875 L 50.171875 -72.21875 L 50.171875 -3.21875 C 50.171875 -2.28125 49.867188 -1.507812 49.265625 -0.90625 C 48.660156 -0.300781 47.882812 0 46.9375 0 Z M 32.625 0 "/></g></g></g><g fill="#000000" fill-opacity="1"><g transform="translate(684.119443, 437.823296)"><g><path d="M 12.640625 0 C 11.773438 0 11.039062 -0.300781 10.4375 -0.90625 C 9.84375 -1.507812 9.546875 -2.28125 9.546875 -3.21875 L 9.546875 -87.046875 C 9.546875 -87.992188 9.84375 -88.769531 10.4375 -89.375 C 11.039062 -89.976562 11.773438 -90.28125 12.640625 -90.28125 L 71.1875 -90.28125 C 72.132812 -90.28125 72.910156 -89.976562 73.515625 -89.375 C 74.117188 -88.769531 74.421875 -87.992188 74.421875 -87.046875 L 74.421875 -76.734375 C 74.421875 -75.785156 74.117188 -75.007812 73.515625 -74.40625 C 72.910156 -73.8125 72.132812 -73.515625 71.1875 -73.515625 L 29.40625 -73.515625 L 29.40625 -53.390625 L 68.359375 -53.390625 C 69.296875 -53.390625 70.066406 -53.085938 70.671875 -52.484375 C 71.273438 -51.890625 71.578125 -51.117188 71.578125 -50.171875 L 71.578125 -40.625 C 71.578125 -39.757812 71.273438 -39.003906 70.671875 -38.359375 C 70.066406 -37.722656 69.296875 -37.40625 68.359375 -37.40625 L 29.40625 -37.40625 L 29.40625 -16.765625 L 72.21875 -16.765625 C 73.164062 -16.765625 73.941406 -16.460938 74.546875 -15.859375 C 75.148438 -15.253906 75.453125 -14.484375 75.453125 -13.546875 L 75.453125 -3.21875 C 75.453125 -2.28125 75.148438 -1.507812 74.546875 -0.90625 C 73.941406 -0.300781 73.164062 0 72.21875 0 Z M 12.640625 0 "/></g></g></g><g clip-path="url(#b4606004b0)"><path fill="#000000" d="M 136.351562 291.246094 C 81.03125 291.246094 36.226562 336.054688 36.226562 391.371094 C 36.226562 446.691406 81.03125 491.496094 136.351562 491.496094 C 191.671875 491.496094 236.476562 446.691406 236.476562 391.371094 C 236.476562 336.054688 191.671875 291.246094 136.351562 291.246094 Z M 136.351562 471.472656 C 92.097656 471.472656 56.253906 435.628906 56.253906 391.371094 C 56.253906 347.117188 92.097656 311.273438 136.351562 311.273438 C 180.605469 311.273438 216.453125 347.117188 216.453125 391.371094 C 216.453125 435.628906 180.605469 471.472656 136.351562 471.472656 Z M 136.351562 471.472656 " fill-opacity="1" fill-rule="nonzero"/></g><g fill="#000000" fill-opacity="1"><g transform="translate(27.020565, 484.745212)"><g><path d="M 129.578125 0.84375 C 121.671875 2.632812 112.539062 3.53125 102.1875 3.53125 C 91.84375 3.53125 80.90625 1.273438 69.375 -3.234375 C 57.84375 -7.753906 47.796875 -14.109375 39.234375 -22.296875 C 20.796875 -39.898438 11.578125 -62.4375 11.578125 -89.90625 C 11.578125 -117.757812 20.515625 -141.378906 38.390625 -160.765625 C 57.210938 -181.097656 81.207031 -191.265625 110.375 -191.265625 C 136.914062 -191.265625 158.9375 -182.890625 176.4375 -166.140625 C 194.976562 -148.253906 204.25 -124.820312 204.25 -95.84375 C 204.25 -72.601562 197.660156 -52.273438 184.484375 -34.859375 C 180.347656 -29.398438 175.738281 -24.507812 170.65625 -20.1875 C 174.039062 -19.238281 178.132812 -17.6875 182.9375 -15.53125 C 193.1875 -10.726562 202.878906 -8.234375 212.015625 -8.046875 L 214.828125 -8.046875 C 219.722656 -8.046875 222.972656 -8.703125 224.578125 -10.015625 L 225.140625 -9.59375 L 214.40625 17.359375 C 213.09375 21.410156 210.597656 23.4375 206.921875 23.4375 C 201.554688 23.4375 196.097656 22.304688 190.546875 20.046875 C 184.992188 17.785156 180.03125 15.664062 175.65625 13.6875 C 171.28125 11.71875 167.117188 9.976562 163.171875 8.46875 C 159.222656 6.957031 155.457031 5.6875 151.875 4.65625 C 145.757812 2.96875 138.328125 1.695312 129.578125 0.84375 Z M 49.40625 -91.46875 C 49.40625 -82.71875 50.929688 -74.597656 53.984375 -67.109375 C 57.046875 -59.628906 61.257812 -53.160156 66.625 -47.703125 C 78.101562 -36.128906 92.5 -30.34375 109.8125 -30.34375 C 126.375 -30.34375 139.878906 -35.941406 150.328125 -47.140625 C 161.148438 -58.617188 166.5625 -73.816406 166.5625 -92.734375 C 166.5625 -110.617188 161.476562 -125.535156 151.3125 -137.484375 C 140.300781 -150.273438 125.71875 -156.671875 107.5625 -156.671875 C 89.863281 -156.671875 75.554688 -150.179688 64.640625 -137.203125 C 54.484375 -124.960938 49.40625 -109.71875 49.40625 -91.46875 Z M 49.40625 -91.46875 "/></g></g></g><g clip-path="url(#09630a83bd)"><g clip-path="url(#7a1ec6197b)"><g clip-path="url(#a1e9ec34c9)"><path fill="#ffde59" d="M 83.800781 346.746094 C 87.859375 341.90625 92.492188 337.699219 97.699219 334.125 C 97.988281 333.941406 98.257812 333.734375 98.503906 333.5 C 98.75 333.265625 98.96875 333.007812 99.164062 332.726562 C 99.359375 332.449219 99.523438 332.152344 99.660156 331.839844 C 99.792969 331.527344 99.898438 331.203125 99.964844 330.871094 C 100.035156 330.535156 100.070312 330.199219 100.074219 329.859375 C 100.074219 329.519531 100.042969 329.179688 99.972656 328.847656 C 99.90625 328.511719 99.808594 328.1875 99.675781 327.875 C 99.542969 327.5625 99.382812 327.261719 99.1875 326.980469 C 98.996094 326.703125 98.777344 326.441406 98.53125 326.207031 C 98.289062 325.96875 98.023438 325.757812 97.734375 325.574219 C 97.449219 325.390625 97.144531 325.238281 96.828125 325.117188 C 96.507812 324.996094 96.183594 324.90625 95.847656 324.851562 C 95.511719 324.792969 95.171875 324.773438 94.832031 324.785156 C 94.492188 324.796875 94.15625 324.84375 93.824219 324.925781 C 93.492188 325.003906 93.171875 325.117188 92.863281 325.261719 C 92.558594 325.40625 92.265625 325.582031 91.992188 325.785156 C 85.992188 329.875 80.660156 334.699219 75.992188 340.261719 C 75.292969 341.085938 74.902344 342.035156 74.820312 343.113281 C 74.78125 343.648438 74.824219 344.175781 74.949219 344.695312 C 75.078125 345.214844 75.28125 345.699219 75.5625 346.15625 C 75.84375 346.609375 76.1875 347.011719 76.597656 347.355469 C 77.003906 347.703125 77.457031 347.976562 77.953125 348.179688 C 78.445312 348.382812 78.960938 348.5 79.496094 348.539062 C 80.027344 348.578125 80.554688 348.535156 81.074219 348.40625 C 81.59375 348.277344 82.078125 348.074219 82.535156 347.789062 C 82.988281 347.507812 83.386719 347.164062 83.730469 346.753906 Z M 83.800781 346.746094 " fill-opacity="1" fill-rule="nonzero"/></g></g></g><g clip-path="url(#e148a39eef)"><g clip-path="url(#1b391fda88)"><g clip-path="url(#57b39e5080)"><path fill="#ffde59" d="M 176.015625 328.316406 C 176.175781 328.027344 176.304688 327.722656 176.402344 327.402344 C 176.5 327.085938 176.566406 326.761719 176.597656 326.433594 C 176.632812 326.101562 176.636719 325.773438 176.605469 325.441406 C 176.574219 325.113281 176.511719 324.789062 176.417969 324.46875 C 176.320312 324.152344 176.195312 323.84375 176.042969 323.550781 C 175.886719 323.257812 175.707031 322.984375 175.496094 322.726562 C 175.285156 322.46875 175.054688 322.234375 174.800781 322.019531 C 174.542969 321.808594 174.269531 321.625 173.980469 321.464844 C 167.605469 318.019531 160.882812 315.507812 153.808594 313.925781 C 153.484375 313.851562 153.15625 313.8125 152.824219 313.804688 C 152.492188 313.796875 152.164062 313.820312 151.835938 313.875 C 151.511719 313.933594 151.191406 314.019531 150.882812 314.140625 C 150.570312 314.261719 150.277344 314.40625 149.996094 314.585938 C 149.714844 314.761719 149.453125 314.964844 149.214844 315.195312 C 148.972656 315.421875 148.753906 315.671875 148.5625 315.945312 C 148.371094 316.214844 148.207031 316.503906 148.074219 316.804688 C 147.9375 317.109375 147.832031 317.421875 147.761719 317.746094 C 147.726562 317.988281 147.710938 318.226562 147.703125 318.472656 C 147.660156 319.074219 147.71875 319.667969 147.886719 320.25 C 148.058594 320.835938 148.320312 321.371094 148.683594 321.855469 C 149.046875 322.34375 149.480469 322.75 149.988281 323.082031 C 150.496094 323.410156 151.046875 323.640625 151.640625 323.773438 C 157.800781 325.152344 163.65625 327.34375 169.207031 330.34375 C 169.496094 330.5 169.800781 330.625 170.117188 330.722656 C 170.429688 330.816406 170.753906 330.882812 171.078125 330.914062 C 171.40625 330.945312 171.734375 330.949219 172.0625 330.917969 C 172.390625 330.886719 172.710938 330.824219 173.027344 330.730469 C 173.34375 330.636719 173.648438 330.511719 173.9375 330.359375 C 174.230469 330.203125 174.503906 330.023438 174.761719 329.816406 C 175.015625 329.609375 175.25 329.382812 175.460938 329.128906 C 175.671875 328.875 175.859375 328.605469 176.015625 328.316406 Z M 176.015625 328.316406 " fill-opacity="1" fill-rule="nonzero"/></g></g></g><g clip-path="url(#5588c96a65)"><g clip-path="url(#4b5be4d3ac)"><g clip-path="url(#b260953646)"><path fill="#ffde59" d="M 132.90625 322.210938 C 133.222656 322.179688 133.539062 322.113281 133.84375 322.019531 C 134.152344 321.929688 134.445312 321.808594 134.730469 321.65625 C 135.015625 321.507812 135.28125 321.332031 135.53125 321.132812 C 135.78125 320.933594 136.011719 320.710938 136.222656 320.464844 C 136.429688 320.222656 136.613281 319.960938 136.769531 319.683594 C 136.929688 319.402344 137.0625 319.113281 137.164062 318.808594 C 137.265625 318.503906 137.339844 318.191406 137.382812 317.875 C 137.429688 317.558594 137.441406 317.238281 137.425781 316.917969 C 137.40625 316.597656 137.359375 316.28125 137.285156 315.96875 C 137.207031 315.660156 137.101562 315.355469 136.96875 315.066406 C 136.832031 314.773438 136.671875 314.5 136.484375 314.238281 C 136.296875 313.976562 136.089844 313.734375 135.855469 313.515625 C 135.621094 313.292969 135.371094 313.097656 135.101562 312.925781 C 134.832031 312.75 134.546875 312.605469 134.25 312.488281 C 133.949219 312.367188 133.644531 312.277344 133.328125 312.21875 C 133.015625 312.15625 132.695312 312.125 132.375 312.125 C 125.148438 312.480469 118.101562 313.808594 111.238281 316.109375 C 110.769531 316.269531 110.332031 316.492188 109.929688 316.777344 C 109.523438 317.066406 109.171875 317.40625 108.867188 317.796875 C 108.5625 318.1875 108.320312 318.613281 108.144531 319.078125 C 107.964844 319.539062 107.855469 320.019531 107.820312 320.511719 C 107.773438 321.199219 107.855469 321.867188 108.074219 322.519531 C 108.179688 322.835938 108.316406 323.136719 108.480469 323.425781 C 108.648438 323.710938 108.839844 323.980469 109.058594 324.230469 C 109.277344 324.480469 109.515625 324.707031 109.78125 324.910156 C 110.042969 325.109375 110.324219 325.285156 110.621094 325.433594 C 110.917969 325.578125 111.230469 325.695312 111.550781 325.78125 C 111.871094 325.867188 112.195312 325.921875 112.527344 325.945312 C 112.859375 325.964844 113.1875 325.957031 113.519531 325.914062 C 113.847656 325.871094 114.167969 325.792969 114.484375 325.6875 C 120.464844 323.675781 126.605469 322.519531 132.90625 322.210938 Z M 132.90625 322.210938 " fill-opacity="1" fill-rule="nonzero"/></g></g></g><g clip-path="url(#fc92c3a696)"><g clip-path="url(#cfebd74a48)"><g clip-path="url(#ac17f0dec4)"><path fill="#ffde59" d="M 166.746094 452.546875 C 166.460938 452.699219 166.191406 452.878906 165.941406 453.085938 C 165.6875 453.289062 165.457031 453.515625 165.25 453.765625 C 165.042969 454.015625 164.859375 454.28125 164.703125 454.566406 C 164.546875 454.851562 164.417969 455.148438 164.320312 455.457031 C 164.21875 455.765625 164.152344 456.082031 164.113281 456.402344 C 164.074219 456.726562 164.066406 457.050781 164.089844 457.375 C 164.113281 457.695312 164.167969 458.015625 164.253906 458.328125 C 164.339844 458.640625 164.453125 458.945312 164.59375 459.234375 C 164.738281 459.527344 164.910156 459.800781 165.105469 460.0625 C 165.300781 460.320312 165.519531 460.558594 165.761719 460.773438 C 166.003906 460.988281 166.265625 461.179688 166.542969 461.347656 C 166.824219 461.515625 167.113281 461.652344 167.421875 461.761719 C 167.726562 461.871094 168.039062 461.953125 168.359375 462 C 168.679688 462.050781 169.003906 462.070312 169.328125 462.058594 C 169.652344 462.042969 169.972656 462 170.289062 461.925781 C 170.605469 461.851562 170.910156 461.75 171.207031 461.617188 C 177.703125 458.421875 183.648438 454.414062 189.050781 449.59375 C 189.320312 449.378906 189.5625 449.136719 189.785156 448.875 C 190.003906 448.609375 190.195312 448.324219 190.355469 448.019531 C 190.519531 447.71875 190.648438 447.402344 190.746094 447.070312 C 190.84375 446.742188 190.90625 446.402344 190.933594 446.0625 C 190.964844 445.71875 190.957031 445.375 190.917969 445.035156 C 190.875 444.691406 190.800781 444.359375 190.691406 444.03125 C 190.582031 443.707031 190.441406 443.394531 190.265625 443.097656 C 190.09375 442.800781 189.890625 442.523438 189.664062 442.265625 C 189.433594 442.011719 189.179688 441.78125 188.902344 441.574219 C 188.625 441.371094 188.332031 441.195312 188.019531 441.050781 C 187.707031 440.90625 187.382812 440.796875 187.050781 440.71875 C 186.714844 440.640625 186.375 440.59375 186.03125 440.585938 C 185.6875 440.578125 185.34375 440.601562 185.007812 440.664062 C 184.667969 440.722656 184.339844 440.816406 184.019531 440.945312 C 183.699219 441.074219 183.394531 441.230469 183.109375 441.421875 C 182.820312 441.609375 182.558594 441.828125 182.3125 442.070312 C 177.601562 446.273438 172.414062 449.765625 166.746094 452.546875 Z M 166.746094 452.546875 " fill-opacity="1" fill-rule="nonzero"/></g></g></g><g clip-path="url(#09e2138082)"><g clip-path="url(#17058d4276)"><g clip-path="url(#4b8919736a)"><path fill="#ffde59" d="M 68.554688 380.625 C 69.492188 374.382812 71.253906 368.382812 73.832031 362.621094 C 73.964844 362.320312 74.070312 362.007812 74.144531 361.683594 C 74.21875 361.359375 74.261719 361.035156 74.273438 360.703125 C 74.28125 360.371094 74.257812 360.042969 74.203125 359.714844 C 74.148438 359.386719 74.0625 359.070312 73.945312 358.761719 C 73.828125 358.449219 73.679688 358.15625 73.503906 357.875 C 73.328125 357.59375 73.125 357.332031 72.898438 357.089844 C 72.671875 356.851562 72.421875 356.632812 72.152344 356.441406 C 71.882812 356.25 71.597656 356.085938 71.296875 355.949219 C 70.992188 355.8125 70.679688 355.707031 70.355469 355.632812 C 70.035156 355.558594 69.707031 355.515625 69.375 355.507812 C 69.042969 355.496094 68.714844 355.519531 68.386719 355.574219 C 68.0625 355.628906 67.742188 355.714844 67.433594 355.835938 C 67.125 355.953125 66.828125 356.097656 66.546875 356.273438 C 66.265625 356.449219 66.003906 356.652344 65.765625 356.878906 C 65.523438 357.105469 65.304688 357.355469 65.113281 357.625 C 64.921875 357.894531 64.757812 358.183594 64.621094 358.484375 C 61.652344 365.09375 59.632812 371.980469 58.570312 379.144531 L 58.539062 379.546875 C 58.5 379.878906 58.496094 380.207031 58.527344 380.539062 C 58.554688 380.867188 58.613281 381.191406 58.707031 381.511719 C 58.796875 381.828125 58.921875 382.132812 59.074219 382.429688 C 59.226562 382.722656 59.40625 383 59.613281 383.257812 C 59.820312 383.515625 60.046875 383.753906 60.300781 383.964844 C 60.554688 384.179688 60.828125 384.367188 61.117188 384.527344 C 61.40625 384.6875 61.710938 384.816406 62.027344 384.917969 C 62.339844 385.015625 62.664062 385.085938 62.992188 385.121094 C 63.324219 385.160156 63.652344 385.164062 63.980469 385.136719 C 64.3125 385.105469 64.636719 385.046875 64.953125 384.953125 C 65.273438 384.863281 65.578125 384.742188 65.875 384.589844 C 66.167969 384.433594 66.445312 384.257812 66.703125 384.050781 C 66.960938 383.84375 67.199219 383.613281 67.410156 383.359375 C 67.625 383.105469 67.8125 382.832031 67.972656 382.542969 C 68.132812 382.253906 68.261719 381.949219 68.359375 381.636719 C 68.460938 381.320312 68.53125 380.996094 68.566406 380.667969 Z M 68.554688 380.625 " fill-opacity="1" fill-rule="nonzero"/></g></g></g><g clip-path="url(#45f5e87157)"><g clip-path="url(#af58a16029)"><g clip-path="url(#7d863d291e)"><path fill="#ffde59" d="M 204.613281 351.117188 C 200.953125 344.867188 196.523438 339.222656 191.328125 334.183594 C 191.089844 333.953125 190.828125 333.746094 190.550781 333.566406 C 190.269531 333.386719 189.976562 333.234375 189.667969 333.113281 C 189.359375 332.992188 189.042969 332.898438 188.714844 332.839844 C 188.390625 332.78125 188.058594 332.753906 187.726562 332.757812 C 187.394531 332.765625 187.066406 332.800781 186.742188 332.871094 C 186.417969 332.941406 186.101562 333.042969 185.796875 333.171875 C 185.492188 333.304688 185.203125 333.464844 184.933594 333.65625 C 184.660156 333.84375 184.40625 334.058594 184.175781 334.296875 C 183.945312 334.535156 183.738281 334.792969 183.558594 335.070312 C 183.378906 335.351562 183.226562 335.644531 183.105469 335.953125 C 182.980469 336.261719 182.890625 336.578125 182.832031 336.90625 C 182.769531 337.230469 182.742188 337.5625 182.75 337.894531 C 182.753906 338.226562 182.792969 338.554688 182.859375 338.878906 C 182.929688 339.203125 183.03125 339.519531 183.164062 339.824219 C 183.292969 340.128906 183.453125 340.417969 183.644531 340.691406 C 183.832031 340.964844 184.046875 341.214844 184.285156 341.445312 C 188.828125 345.835938 192.6875 350.761719 195.871094 356.21875 C 196.042969 356.492188 196.242188 356.75 196.464844 356.992188 C 196.683594 357.230469 196.929688 357.445312 197.191406 357.636719 C 197.457031 357.828125 197.734375 357.992188 198.03125 358.128906 C 198.328125 358.265625 198.632812 358.375 198.949219 358.453125 C 199.265625 358.53125 199.585938 358.578125 199.914062 358.59375 C 200.238281 358.609375 200.5625 358.59375 200.886719 358.546875 C 201.207031 358.5 201.523438 358.425781 201.832031 358.316406 C 202.140625 358.210938 202.433594 358.074219 202.714844 357.910156 C 202.996094 357.746094 203.261719 357.554688 203.503906 357.339844 C 203.75 357.125 203.972656 356.886719 204.171875 356.628906 C 204.367188 356.371094 204.542969 356.09375 204.6875 355.804688 C 204.832031 355.511719 204.949219 355.207031 205.035156 354.894531 C 205.121094 354.578125 205.179688 354.261719 205.203125 353.933594 C 205.230469 353.609375 205.222656 353.285156 205.1875 352.960938 C 205.148438 352.636719 205.078125 352.320312 204.980469 352.007812 C 204.882812 351.699219 204.753906 351.402344 204.597656 351.113281 Z M 204.613281 351.117188 " fill-opacity="1" fill-rule="nonzero"/></g></g></g><g clip-path="url(#41106f804e)"><g clip-path="url(#36a1481f30)"><g clip-path="url(#87a6c05447)"><path fill="#ffde59" d="M 150.769531 468.371094 C 151.09375 468.308594 151.414062 468.21875 151.71875 468.09375 C 152.027344 467.972656 152.320312 467.820312 152.601562 467.640625 C 152.878906 467.460938 153.136719 467.253906 153.375 467.023438 C 153.613281 466.792969 153.824219 466.539062 154.011719 466.265625 C 154.199219 465.992188 154.359375 465.703125 154.492188 465.398438 C 154.621094 465.09375 154.722656 464.78125 154.792969 464.457031 C 154.863281 464.132812 154.898438 463.804688 154.902344 463.472656 C 154.90625 463.140625 154.878906 462.8125 154.820312 462.484375 C 154.761719 462.15625 154.667969 461.839844 154.546875 461.53125 C 154.425781 461.222656 154.273438 460.929688 154.09375 460.652344 C 153.914062 460.375 153.707031 460.117188 153.476562 459.878906 C 153.246094 459.640625 152.992188 459.425781 152.71875 459.238281 C 152.445312 459.050781 152.160156 458.890625 151.855469 458.757812 C 151.550781 458.625 151.234375 458.523438 150.910156 458.457031 C 150.585938 458.386719 150.257812 458.347656 149.925781 458.34375 C 149.59375 458.339844 149.265625 458.363281 148.941406 458.425781 C 142.910156 459.519531 136.839844 459.8125 130.734375 459.296875 C 124.628906 458.78125 118.695312 457.476562 112.933594 455.382812 C 112.621094 455.269531 112.300781 455.183594 111.96875 455.132812 C 111.640625 455.082031 111.308594 455.0625 110.976562 455.074219 C 110.640625 455.085938 110.3125 455.132812 109.988281 455.210938 C 109.664062 455.289062 109.351562 455.394531 109.046875 455.535156 C 108.746094 455.675781 108.457031 455.84375 108.1875 456.039062 C 107.917969 456.234375 107.671875 456.453125 107.445312 456.699219 C 107.21875 456.945312 107.015625 457.207031 106.839844 457.492188 C 106.667969 457.777344 106.523438 458.074219 106.40625 458.386719 C 106.289062 458.699219 106.207031 459.023438 106.152344 459.351562 C 106.101562 459.679688 106.082031 460.011719 106.09375 460.34375 C 106.105469 460.679688 106.148438 461.007812 106.226562 461.332031 C 106.304688 461.65625 106.414062 461.96875 106.550781 462.273438 C 106.691406 462.578125 106.859375 462.863281 107.054688 463.132812 C 107.25 463.402344 107.46875 463.652344 107.714844 463.878906 C 107.957031 464.105469 108.222656 464.308594 108.507812 464.484375 C 108.789062 464.65625 109.089844 464.804688 109.402344 464.917969 C 116.011719 467.3125 122.820312 468.804688 129.824219 469.394531 C 136.832031 469.988281 143.792969 469.660156 150.710938 468.40625 Z M 150.769531 468.371094 " fill-opacity="1" fill-rule="nonzero"/></g></g></g><g clip-path="url(#9f2123d8c9)"><g clip-path="url(#e421b02a22)"><g clip-path="url(#de72aa963e)"><path fill="#ffde59" d="M 97.488281 453.640625 C 97.6875 453.371094 97.859375 453.085938 98 452.785156 C 98.140625 452.480469 98.25 452.167969 98.328125 451.84375 C 98.410156 451.519531 98.453125 451.1875 98.46875 450.855469 C 98.480469 450.523438 98.460938 450.191406 98.410156 449.859375 C 98.359375 449.53125 98.273438 449.210938 98.15625 448.894531 C 98.042969 448.582031 97.894531 448.285156 97.71875 448 C 97.546875 447.714844 97.34375 447.453125 97.117188 447.207031 C 96.886719 446.964844 96.636719 446.746094 96.367188 446.550781 C 91.25 442.851562 86.71875 438.535156 82.777344 433.601562 C 82.578125 433.324219 82.351562 433.070312 82.097656 432.835938 C 81.847656 432.605469 81.574219 432.402344 81.28125 432.222656 C 80.988281 432.046875 80.679688 431.902344 80.359375 431.789062 C 80.035156 431.671875 79.703125 431.59375 79.367188 431.546875 C 79.027344 431.5 78.6875 431.488281 78.34375 431.507812 C 78.003906 431.53125 77.667969 431.585938 77.335938 431.675781 C 77.007812 431.765625 76.691406 431.890625 76.382812 432.042969 C 76.078125 432.199219 75.792969 432.382812 75.523438 432.597656 C 75.257812 432.808594 75.011719 433.046875 74.792969 433.308594 C 74.574219 433.570312 74.382812 433.855469 74.222656 434.15625 C 74.058594 434.457031 73.929688 434.769531 73.828125 435.097656 C 73.730469 435.425781 73.667969 435.761719 73.636719 436.101562 C 73.605469 436.441406 73.609375 436.78125 73.648438 437.121094 C 73.6875 437.464844 73.757812 437.796875 73.863281 438.121094 C 73.96875 438.445312 74.109375 438.757812 74.277344 439.054688 C 74.445312 439.351562 74.644531 439.628906 74.871094 439.886719 C 79.375 445.582031 84.5625 450.566406 90.4375 454.835938 C 90.707031 455.03125 90.992188 455.195312 91.296875 455.335938 C 91.597656 455.472656 91.914062 455.578125 92.238281 455.652344 C 92.5625 455.726562 92.890625 455.769531 93.222656 455.78125 C 93.554688 455.789062 93.882812 455.769531 94.210938 455.710938 C 94.539062 455.65625 94.859375 455.570312 95.171875 455.449219 C 95.480469 455.332031 95.777344 455.183594 96.058594 455.003906 C 96.339844 454.828125 96.601562 454.625 96.84375 454.394531 C 97.082031 454.164062 97.300781 453.914062 97.488281 453.640625 Z M 97.488281 453.640625 " fill-opacity="1" fill-rule="nonzero"/></g></g></g><g clip-path="url(#8da959ff15)"><g clip-path="url(#de759419b5)"><g clip-path="url(#497219949b)"><path fill="#ffde59" d="M 215.332031 392.378906 C 215.460938 385.136719 214.605469 378.011719 212.765625 371.003906 C 212.601562 370.441406 212.347656 369.925781 212 369.457031 C 211.65625 368.984375 211.242188 368.585938 210.761719 368.257812 C 210.277344 367.929688 209.753906 367.691406 209.1875 367.542969 C 208.625 367.398438 208.050781 367.351562 207.46875 367.402344 C 206.886719 367.453125 206.332031 367.601562 205.800781 367.847656 C 205.273438 368.09375 204.796875 368.417969 204.382812 368.828125 C 203.964844 369.234375 203.628906 369.703125 203.371094 370.226562 C 203.117188 370.75 202.957031 371.304688 202.894531 371.882812 C 202.855469 372.449219 202.90625 373.003906 203.046875 373.550781 C 204.632812 379.664062 205.359375 385.878906 205.21875 392.191406 C 205.210938 392.523438 205.234375 392.855469 205.292969 393.179688 C 205.351562 393.507812 205.441406 393.824219 205.5625 394.136719 C 205.683594 394.445312 205.835938 394.738281 206.011719 395.019531 C 206.191406 395.296875 206.398438 395.558594 206.628906 395.796875 C 206.855469 396.035156 207.109375 396.25 207.378906 396.441406 C 207.652344 396.632812 207.941406 396.792969 208.246094 396.925781 C 208.550781 397.058594 208.863281 397.160156 209.1875 397.230469 C 209.511719 397.304688 209.839844 397.34375 210.171875 397.347656 C 210.503906 397.355469 210.835938 397.328125 211.160156 397.273438 C 211.488281 397.214844 211.804688 397.125 212.117188 397.003906 C 212.425781 396.882812 212.71875 396.730469 213 396.554688 C 213.277344 396.375 213.539062 396.167969 213.777344 395.9375 C 214.015625 395.710938 214.230469 395.457031 214.421875 395.183594 C 214.613281 394.914062 214.773438 394.625 214.90625 394.320312 C 215.039062 394.015625 215.140625 393.703125 215.210938 393.378906 C 215.285156 393.054688 215.324219 392.726562 215.328125 392.394531 Z M 215.332031 392.378906 " fill-opacity="1" fill-rule="nonzero"/></g></g></g><g clip-path="url(#2cba285030)"><g clip-path="url(#7a2672d24f)"><g clip-path="url(#c64cdccaa8)"><path fill="#ffde59" d="M 73.179688 417.511719 C 70.726562 411.695312 69.109375 405.65625 68.320312 399.390625 C 68.238281 398.773438 68.046875 398.195312 67.75 397.648438 C 67.453125 397.101562 67.066406 396.625 66.59375 396.222656 C 66.121094 395.816406 65.589844 395.511719 65.003906 395.300781 C 64.417969 395.09375 63.8125 394.996094 63.191406 395.011719 C 62.570312 395.027344 61.96875 395.152344 61.394531 395.386719 C 60.820312 395.625 60.304688 395.957031 59.851562 396.382812 C 59.394531 396.808594 59.035156 397.300781 58.761719 397.859375 C 58.492188 398.421875 58.328125 399.011719 58.273438 399.628906 C 58.246094 399.972656 58.253906 400.3125 58.292969 400.65625 C 59.191406 407.839844 61.054688 414.765625 63.871094 421.4375 C 63.992188 421.757812 64.140625 422.0625 64.320312 422.355469 C 64.5 422.644531 64.707031 422.914062 64.941406 423.164062 C 65.175781 423.414062 65.433594 423.636719 65.714844 423.832031 C 65.992188 424.027344 66.289062 424.195312 66.605469 424.332031 C 66.917969 424.46875 67.242188 424.570312 67.578125 424.640625 C 67.910156 424.710938 68.25 424.75 68.589844 424.75 C 68.933594 424.753906 69.273438 424.71875 69.609375 424.652344 C 69.941406 424.585938 70.269531 424.484375 70.582031 424.351562 C 70.898438 424.21875 71.195312 424.058594 71.480469 423.863281 C 71.761719 423.671875 72.019531 423.449219 72.257812 423.203125 C 72.496094 422.957031 72.707031 422.691406 72.890625 422.402344 C 73.074219 422.113281 73.226562 421.808594 73.347656 421.488281 C 73.46875 421.167969 73.554688 420.839844 73.609375 420.503906 C 73.664062 420.164062 73.6875 419.824219 73.671875 419.484375 C 73.65625 419.140625 73.609375 418.804688 73.527344 418.472656 C 73.445312 418.140625 73.328125 417.820312 73.179688 417.511719 Z M 73.179688 417.511719 " fill-opacity="1" fill-rule="nonzero"/></g></g></g><g clip-path="url(#b12ce4e761)"><g clip-path="url(#441bb047af)"><g clip-path="url(#ca46a491cf)"><path fill="#ffde59" d="M 203 433.191406 C 206.902344 427.09375 209.894531 420.574219 211.976562 413.640625 C 212.074219 413.320312 212.136719 412.996094 212.171875 412.664062 C 212.203125 412.332031 212.203125 412 212.167969 411.671875 C 212.136719 411.339844 212.070312 411.015625 211.972656 410.695312 C 211.875 410.378906 211.75 410.070312 211.589844 409.777344 C 211.433594 409.484375 211.25 409.210938 211.039062 408.953125 C 210.828125 408.695312 210.589844 408.460938 210.335938 408.253906 C 210.078125 408.042969 209.800781 407.859375 209.507812 407.703125 C 209.214844 407.542969 208.90625 407.417969 208.589844 407.324219 C 208.269531 407.226562 207.945312 407.164062 207.613281 407.128906 C 207.28125 407.097656 206.953125 407.097656 206.621094 407.132812 C 206.289062 407.164062 205.964844 407.230469 205.644531 407.328125 C 205.328125 407.421875 205.023438 407.550781 204.726562 407.707031 C 204.433594 407.863281 204.160156 408.050781 203.902344 408.261719 C 203.644531 408.472656 203.410156 408.707031 203.199219 408.964844 C 202.988281 409.222656 202.804688 409.496094 202.648438 409.792969 C 202.492188 410.085938 202.367188 410.390625 202.269531 410.710938 C 200.460938 416.761719 197.863281 422.457031 194.476562 427.789062 C 194.28125 428.070312 194.117188 428.367188 193.980469 428.679688 C 193.847656 428.992188 193.746094 429.316406 193.675781 429.648438 C 193.605469 429.980469 193.570312 430.320312 193.570312 430.660156 C 193.570312 431 193.601562 431.335938 193.667969 431.671875 C 193.734375 432.003906 193.835938 432.328125 193.96875 432.644531 C 194.101562 432.957031 194.261719 433.253906 194.457031 433.535156 C 194.648438 433.816406 194.867188 434.074219 195.113281 434.3125 C 195.355469 434.546875 195.621094 434.757812 195.910156 434.941406 C 196.195312 435.125 196.5 435.277344 196.816406 435.398438 C 197.136719 435.519531 197.460938 435.609375 197.796875 435.664062 C 198.132812 435.722656 198.472656 435.742188 198.8125 435.730469 C 199.152344 435.71875 199.488281 435.671875 199.820312 435.589844 C 200.152344 435.511719 200.46875 435.398438 200.777344 435.253906 C 201.085938 435.109375 201.378906 434.933594 201.648438 434.730469 C 201.921875 434.527344 202.171875 434.296875 202.398438 434.042969 C 202.625 433.789062 202.824219 433.515625 202.996094 433.222656 Z M 203 433.191406 " fill-opacity="1" fill-rule="nonzero"/></g></g></g><g clip-path="url(#ce5052fd7e)"><g clip-path="url(#3aa0e2e5a0)"><g clip-path="url(#56022ac909)"><path fill="#ffde59" d="M 221.800781 485.949219 C 221.835938 485.644531 221.84375 485.339844 221.816406 485.03125 C 221.792969 484.726562 221.738281 484.425781 221.652344 484.128906 C 221.566406 483.835938 221.453125 483.550781 221.3125 483.277344 C 221.171875 483.007812 221.003906 482.75 220.8125 482.511719 C 220.621094 482.269531 220.40625 482.050781 220.171875 481.855469 C 219.9375 481.660156 219.683594 481.488281 219.414062 481.339844 C 219.144531 481.191406 218.863281 481.074219 218.570312 480.984375 C 218.277344 480.890625 217.976562 480.832031 217.671875 480.800781 C 211.898438 480.179688 206.316406 478.796875 200.917969 476.65625 C 200.632812 476.523438 200.335938 476.421875 200.027344 476.351562 C 199.722656 476.28125 199.410156 476.242188 199.097656 476.234375 C 198.78125 476.226562 198.46875 476.253906 198.160156 476.308594 C 197.851562 476.363281 197.550781 476.449219 197.257812 476.566406 C 196.964844 476.683594 196.6875 476.828125 196.425781 477.003906 C 196.164062 477.175781 195.921875 477.375 195.699219 477.597656 C 195.476562 477.820312 195.277344 478.0625 195.105469 478.324219 C 194.933594 478.585938 194.789062 478.863281 194.671875 479.15625 C 194.554688 479.449219 194.46875 479.75 194.410156 480.058594 C 194.355469 480.371094 194.332031 480.683594 194.339844 480.996094 C 194.347656 481.3125 194.386719 481.621094 194.457031 481.929688 C 194.527344 482.234375 194.628906 482.53125 194.757812 482.816406 C 194.890625 483.101562 195.050781 483.375 195.234375 483.628906 C 195.421875 483.882812 195.628906 484.113281 195.863281 484.324219 C 196.097656 484.535156 196.347656 484.722656 196.617188 484.882812 C 196.890625 485.042969 197.171875 485.175781 197.472656 485.277344 C 203.664062 487.773438 210.078125 489.386719 216.714844 490.117188 C 217.019531 490.152344 217.324219 490.152344 217.628906 490.125 C 217.933594 490.097656 218.230469 490.039062 218.523438 489.949219 C 218.816406 489.863281 219.097656 489.746094 219.367188 489.601562 C 219.640625 489.460938 219.890625 489.289062 220.128906 489.097656 C 220.367188 488.902344 220.582031 488.6875 220.773438 488.449219 C 220.96875 488.214844 221.136719 487.960938 221.28125 487.691406 C 221.425781 487.421875 221.539062 487.136719 221.628906 486.84375 C 221.714844 486.550781 221.773438 486.253906 221.800781 485.949219 Z M 221.800781 485.949219 " fill-opacity="1" fill-rule="nonzero"/></g></g></g><g clip-path="url(#c8d7b041d4)"><g clip-path="url(#257aa7e491)"><g clip-path="url(#5a0743cc7d)"><path fill="#ffde59" d="M 185.921875 468.183594 C 181.3125 464.65625 177.265625 460.570312 173.785156 455.925781 C 173.4375 455.472656 173.019531 455.09375 172.53125 454.792969 C 172.046875 454.492188 171.519531 454.289062 170.957031 454.183594 C 170.394531 454.074219 169.832031 454.074219 169.269531 454.175781 C 168.707031 454.273438 168.179688 454.472656 167.691406 454.769531 C 167.199219 455.0625 166.777344 455.4375 166.425781 455.886719 C 166.074219 456.339844 165.8125 456.839844 165.644531 457.386719 C 165.476562 457.933594 165.414062 458.492188 165.453125 459.0625 C 165.492188 459.632812 165.628906 460.179688 165.867188 460.699219 C 166.003906 460.984375 166.164062 461.253906 166.351562 461.507812 C 170.34375 466.832031 174.988281 471.515625 180.277344 475.558594 C 180.519531 475.761719 180.777344 475.9375 181.054688 476.085938 C 181.332031 476.238281 181.617188 476.359375 181.921875 476.449219 C 182.222656 476.542969 182.527344 476.601562 182.839844 476.632812 C 183.152344 476.660156 183.464844 476.65625 183.78125 476.625 C 184.09375 476.589844 184.398438 476.523438 184.699219 476.429688 C 184.996094 476.332031 185.285156 476.207031 185.558594 476.050781 C 185.832031 475.898438 186.085938 475.71875 186.324219 475.511719 C 186.5625 475.304688 186.777344 475.078125 186.96875 474.828125 C 187.160156 474.578125 187.324219 474.3125 187.460938 474.027344 C 187.597656 473.746094 187.703125 473.453125 187.78125 473.148438 C 187.859375 472.84375 187.90625 472.53125 187.917969 472.21875 C 187.933594 471.90625 187.917969 471.59375 187.867188 471.28125 C 187.820312 470.96875 187.738281 470.667969 187.628906 470.375 C 187.519531 470.078125 187.378906 469.796875 187.214844 469.53125 C 187.046875 469.265625 186.855469 469.019531 186.636719 468.792969 C 186.417969 468.5625 186.183594 468.359375 185.921875 468.183594 Z M 185.921875 468.183594 " fill-opacity="1" fill-rule="nonzero"/></g></g></g><g clip-path="url(#e18405fa61)"><path fill="#000000" d="M 135.457031 324.480469 C 98.371094 324.480469 68.332031 354.519531 68.332031 391.605469 C 68.332031 428.691406 98.371094 458.730469 135.457031 458.730469 C 172.542969 458.730469 202.582031 428.691406 202.582031 391.605469 C 202.582031 354.519531 172.542969 324.480469 135.457031 324.480469 Z M 135.457031 445.304688 C 105.785156 445.304688 81.753906 421.277344 81.753906 391.605469 C 81.753906 361.9375 105.785156 337.90625 135.457031 337.90625 C 165.125 337.90625 189.15625 361.9375 189.15625 391.605469 C 189.15625 421.277344 165.125 445.304688 135.457031 445.304688 Z M 135.457031 445.304688 " fill-opacity="1" fill-rule="nonzero"/></g><g clip-path="url(#6f2d5be824)"><path fill="#000000" d="M 135.375 329.605469 C 101.191406 329.605469 73.5 357.292969 73.5 391.480469 C 73.5 425.667969 101.191406 453.355469 135.375 453.355469 C 169.5625 453.355469 197.25 425.667969 197.25 391.480469 C 197.25 357.292969 169.5625 329.605469 135.375 329.605469 Z M 135.375 440.980469 C 108.027344 440.980469 85.875 418.828125 85.875 391.480469 C 85.875 364.132812 108.027344 341.980469 135.375 341.980469 C 162.722656 341.980469 184.875 364.132812 184.875 391.480469 C 184.875 418.828125 162.722656 440.980469 135.375 440.980469 Z M 135.375 440.980469 " fill-opacity="1" fill-rule="nonzero"/></g><g clip-path="url(#365f058e31)"><path fill="#000000" d="M 137.113281 333.445312 C 105 333.445312 78.988281 359.457031 78.988281 391.570312 C 78.988281 423.683594 105 449.695312 137.113281 449.695312 C 169.226562 449.695312 195.238281 423.683594 195.238281 391.570312 C 195.238281 359.457031 169.226562 333.445312 137.113281 333.445312 Z M 137.113281 438.070312 C 111.421875 438.070312 90.613281 417.261719 90.613281 391.570312 C 90.613281 365.878906 111.421875 345.070312 137.113281 345.070312 C 162.804688 345.070312 183.613281 365.878906 183.613281 391.570312 C 183.613281 417.261719 162.804688 438.070312 137.113281 438.070312 Z M 137.113281 438.070312 " fill-opacity="1" fill-rule="nonzero"/></g></svg>